<svg width="150" height="150" viewBox="0 0 150 150" fill="none" xmlns="http://www.w3.org/2000/svg">
<g id="account-icon 1" clip-path="url(#clip0_21_40)">
<path id="Vector" d="M75 147C114.765 147 147 114.765 147 75C147 35.2355 114.765 3 75 3C35.2355 3 3 35.2355 3 75C3 114.765 35.2355 147 75 147Z" stroke="#D9D9D9" stroke-opacity="0.6" stroke-width="2" stroke-miterlimit="10" stroke-linecap="round"/>
<path id="Vector_2" d="M89.799 106.584C89.361 101.748 89.529 98.373 89.529 93.954C91.719 92.805 95.643 85.479 96.306 79.29C98.028 79.149 100.743 77.469 101.538 70.836C101.967 67.275 100.263 65.271 99.225 64.641C102.027 56.214 107.847 30.144 88.461 27.45C86.466 23.946 81.357 22.173 74.718 22.173C48.156 22.662 44.952 42.231 50.775 64.641C49.74 65.271 48.036 67.275 48.462 70.836C49.26 77.469 51.972 79.149 53.694 79.29C54.354 85.476 58.434 92.805 60.63 93.954C60.63 98.373 60.795 101.748 60.357 106.584C56.574 116.754 37.146 117.549 25.938 127.356C37.656 139.155 56.646 147.594 76.686 147.594C96.726 147.594 120.282 131.772 124.203 127.455C113.064 117.558 93.591 116.79 89.799 106.584Z" fill="#D9D9D9" fill-opacity="0.6"/>
</g>
<defs>
<clipPath id="clip0_21_40">
<rect width="150" height="150" fill="white"/>
</clipPath>
</defs>
</svg>
