<svg width="24" height="24" viewBox="0 0 24 24" fill="none" xmlns="http://www.w3.org/2000/svg">
<g id="icons8-&#208;&#186;&#208;&#189;&#208;&#184;&#208;&#179;&#208;&#176;-50 1">
<g id="Group">
<path id="Vector" d="M3.45575 1.53605C2.63975 2.35205 2.63975 21.6481 3.45575 22.4641C4.17575 23.1841 21.1198 23.2801 21.1198 22.5601C21.1198 22.2721 18.2878 22.0801 13.6318 22.0801C6.19175 22.0801 4.31975 21.7441 4.31975 20.4001C4.31975 19.0561 6.19175 18.7201 13.6318 18.7201H21.1198V9.84005V0.960049H12.5758C6.57575 0.960049 3.83975 1.15205 3.45575 1.53605ZM20.1598 9.84005V17.7601H11.9998H3.83975V10.8C3.83975 1.48805 3.40775 1.92005 12.9598 1.92005H20.1598V9.84005Z" fill="white"/>
<path id="Vector_2" d="M6.24023 6.24003V8.16003H12.2402H18.2402V6.24003V4.32003H12.2402H6.24023V6.24003Z" fill="white"/>
</g>
</g>
</svg>
