<svg width="24" height="24" viewBox="0 0 24 24" fill="none" xmlns="http://www.w3.org/2000/svg">
<g id="icons8-&#208;&#178;&#209;&#139;&#208;&#177;&#208;&#190;&#209;&#128;&#209;&#139;-50 1">
<g id="Group">
<path id="Vector" d="M3.83992 5.99996C3.83992 9.79196 3.93592 10.128 5.27992 11.664C7.15192 13.824 7.10392 14.304 4.94392 14.496C3.16792 14.64 3.11992 14.736 2.54392 17.04C2.25592 18.336 1.96792 20.016 1.96792 20.736L1.91992 22.08H11.9999H22.0799L22.0319 20.736C22.0319 20.016 21.7439 18.336 21.4559 17.04C20.8799 14.736 20.8319 14.64 19.0559 14.496L17.2799 14.352L17.2319 11.856C17.1839 10.464 17.0399 8.87996 16.8959 8.30396C16.4159 6.76796 12.4799 1.91996 11.7119 1.91996C10.5599 1.91996 10.9439 2.83195 13.1999 5.61596C14.3999 7.05596 15.3599 8.44796 15.3599 8.68796C15.3599 8.92796 14.2079 9.11996 12.7679 9.11996C10.7999 9.11996 10.1279 8.92796 9.88792 8.30396C9.64792 7.72796 9.40792 7.67996 9.02392 8.06396C8.63992 8.44796 8.87992 9.45596 10.0319 12C10.8959 13.872 11.4719 15.552 11.3279 15.744C10.7999 16.272 9.40792 15.12 8.54392 13.44C8.11192 12.576 7.15192 11.28 6.47992 10.56C5.42392 9.45596 5.18392 8.68796 4.94392 5.56796C4.79992 3.55196 4.46392 1.91996 4.27192 1.91996C4.03192 1.91996 3.83992 3.74396 3.83992 5.99996ZM16.3199 14.16V18.24H11.9999H7.67992V16.944C7.67992 15.744 7.72792 15.744 8.54392 16.464C9.02392 16.944 10.1279 17.28 10.9439 17.28C13.0079 17.28 13.3919 15.744 12.0479 12.72C11.4719 11.472 11.0399 10.368 11.0399 10.272C11.0399 10.176 12.2399 10.08 13.6799 10.08H16.3199V14.16ZM6.71992 16.32C6.71992 16.848 6.38392 17.28 5.99992 17.28C5.61592 17.28 5.27992 17.712 5.27992 18.24C5.27992 19.152 5.61592 19.2 11.9999 19.2C18.3839 19.2 18.7199 19.152 18.7199 18.24C18.7199 17.712 18.3839 17.28 17.9999 17.28C17.6159 17.28 17.2799 16.848 17.2799 16.32C17.2799 15.648 17.6159 15.36 18.4319 15.36C19.3919 15.36 19.6319 15.696 19.9199 17.136C20.0639 18.144 20.3519 19.44 20.4959 20.016L20.7359 21.12H11.9999H3.26392L3.50392 20.016C3.64792 19.44 3.93592 18.144 4.07992 17.136C4.36792 15.696 4.60792 15.36 5.56792 15.36C6.38392 15.36 6.71992 15.648 6.71992 16.32Z" fill="white"/>
</g>
</g>
</svg>
